<svg id="Layer_1" data-name="Layer 1" xmlns="http://www.w3.org/2000/svg" viewBox="0 0 238.12 63.86"><defs><style>.cls-1{fill:#1d1d1b;}.cls-2{fill:#e30613;}</style></defs><path class="cls-1" d="M139.32,20.65a5,5,0,0,0-3.38-1h-3.15a2,2,0,0,1-1.24-.33,1.33,1.33,0,0,1-.51-1.13V16.81a1.38,1.38,0,0,1,.5-1.1,2,2,0,0,1,1.25-.34h7.06V13H132.9a4.47,4.47,0,0,0-3.15,1.05,3.5,3.5,0,0,0-1.12,2.72v1.35a3.53,3.53,0,0,0,1.12,2.78,4.47,4.47,0,0,0,3.15,1h3.18a2.42,2.42,0,0,1,1.39.32,1.33,1.33,0,0,1,.58,1.2v1.1a1.37,1.37,0,0,1-.58,1.17,2.36,2.36,0,0,1-1.39.34h-7.2v2.35h7.06a5,5,0,0,0,3.37-1.06,3.55,3.55,0,0,0,1.17-2.82V23.45A3.5,3.5,0,0,0,139.32,20.65Z"/><g id="Logo_1" data-name="Logo 1"><path id="SVGID" class="cls-2" d="M40.81,41.76a3,3,0,0,1-4.28,4.31,3,3,0,0,1,4.28-4.31Zm-5.52,9.83a3,3,0,0,1-4.28,0,3,3,0,1,1,4.28-4.28,3,3,0,0,1,0,4.28ZM23.84,13.75A4.14,4.14,0,1,1,28,17.87a4.13,4.13,0,0,1-4.12-4.12ZM60.41,26.66l-20-20a14.21,14.21,0,0,1-1.68,16.53L23.52,38.56a5.64,5.64,0,0,1,0-8L33.64,20.41a10,10,0,0,0,3-6.69,8.6,8.6,0,1,0-10.12,8.47l-4.45,4.47v0a14.27,14.27,0,0,1-8.15-11L4.2,25.39a6.42,6.42,0,0,0,0,9.11L24.41,54.73a14.25,14.25,0,0,1-2-7.39A14,14,0,0,1,26,37.92L41.16,22.54a5.63,5.63,0,0,1,0,8L31,40.68a9.83,9.83,0,0,0-3,6.66,8.6,8.6,0,1,0,10.08-8.43l4.48-4.48,0,0a14.3,14.3,0,0,1,8.18,11l9.67-9.68a6.39,6.39,0,0,0,0-9.1Z"/></g><path class="cls-2" d="M205.05,19.12a5.19,5.19,0,0,0-.21-.93,4.07,4.07,0,0,0-.4-.91,3.11,3.11,0,0,0-.74-.85,3.41,3.41,0,0,0-.83-.49,3.18,3.18,0,0,0-.88-.23,6.55,6.55,0,0,0-.86-.06h-4.75c-.18,0-.38,0-.6,0a4.91,4.91,0,0,0-.72.12,4.25,4.25,0,0,0-.77.23,3.6,3.6,0,0,0-.72.39A2.46,2.46,0,0,0,193,17V15.64h-2.24v11h-9.49V12.31H179V26.84A6.33,6.33,0,0,1,179,28a1.79,1.79,0,0,1-.29.72,1.46,1.46,0,0,1-.76.55,4.13,4.13,0,0,1-1.06.12H175a4.13,4.13,0,0,1-1.06-.12,1.4,1.4,0,0,1-.75-.55,1.8,1.8,0,0,1-.3-.72,6.33,6.33,0,0,1-.08-1.11V18.35h-2.23v8.91a8.84,8.84,0,0,0,0,.91,4,4,0,0,0,.16.81,3.82,3.82,0,0,0,.31.72,3,3,0,0,0,.52.62,2.69,2.69,0,0,0,1.13.62,6,6,0,0,0,1.5.17h3.38a5.85,5.85,0,0,0,1.5-.17,2.69,2.69,0,0,0,1.13-.62,3,3,0,0,0,.66-.87,3.88,3.88,0,0,0,.3-1.05h19.86l.79,0a3.14,3.14,0,0,0,.84-.17,3.3,3.3,0,0,0,.84-.42,3.44,3.44,0,0,0,.78-.79,4.3,4.3,0,0,0,.45-.84,4,4,0,0,0,.25-.88,5.88,5.88,0,0,0,.11-.94c0-.33,0-3,0-3.36s0-.59,0-.91S205.09,19.44,205.05,19.12Zm-2.27,5.48a2.5,2.5,0,0,1-.35,1.1,1.37,1.37,0,0,1-.34.44,1.7,1.7,0,0,1-.47.29,3.62,3.62,0,0,1-.63.16,6.65,6.65,0,0,1-.81,0H193v-6.1a3.76,3.76,0,0,1,1-2.27,3.08,3.08,0,0,1,2.12-.85h4.12l.53,0a2.87,2.87,0,0,1,.57.11,2.34,2.34,0,0,1,.56.25,1.7,1.7,0,0,1,.48.45,2.59,2.59,0,0,1,.39,1.08,13,13,0,0,1,.09,1.67C202.83,21.44,202.81,24.2,202.78,24.6Zm3.6-12.3h2.24V28.4h-2.24Zm23.84,1.79H228V12.26h2.23Zm3-1.83v1.83H231V12.26ZM231,24.15a6.53,6.53,0,0,1-.08,1,1.93,1.93,0,0,1-.34.85,1.39,1.39,0,0,1-.62.48,2.76,2.76,0,0,1-1,.14h-9.39V17.57a2.73,2.73,0,0,0-.11-.76,1.42,1.42,0,0,0-.48-.75,1.49,1.49,0,0,0-.78-.35,6,6,0,0,0-.86-.06h-3.27l-.78,0a3.73,3.73,0,0,0-.8.14,2.86,2.86,0,0,0-.79.34,3,3,0,0,0-.74.63,3.71,3.71,0,0,0-.87,1.72,11.15,11.15,0,0,0-.2,2.2c0,1.85.26,5.53.78,6.37a2.62,2.62,0,0,0,.66.73,2.83,2.83,0,0,0,.77.4,4,4,0,0,0,.83.17l.8,0h3.59a1.9,1.9,0,0,1-.6,1.2,1.8,1.8,0,0,1-.95.4l-.5.06h-4.67v1.77h4.77c.18,0,.41,0,.7,0a5.35,5.35,0,0,0,.91-.17,4.14,4.14,0,0,0,.95-.37,2.66,2.66,0,0,0,.82-.68,3.38,3.38,0,0,0,.53-1,6.77,6.77,0,0,0,.24-1.19h9.89l.78,0a5.68,5.68,0,0,0,.72-.11,3.38,3.38,0,0,0,.69-.26,2.88,2.88,0,0,0,.64-.45,4,4,0,0,0,.37-.43,2.82,2.82,0,0,0,.32-.57,3.7,3.7,0,0,0,.21-.75,4.65,4.65,0,0,0,.08-1v-9.2H231Zm-13.66,2.48h-2.66a4.26,4.26,0,0,1-.5,0l-.52-.05a1.48,1.48,0,0,1-.89-.54,1,1,0,0,1-.19-.29,2.07,2.07,0,0,1-.18-.52,4.94,4.94,0,0,1-.14-.82c0-.33-.06-3.06-.06-3.52,0-.12,0-.3,0-.54a7.76,7.76,0,0,1,.07-.78,3.93,3.93,0,0,1,.18-.81,1.77,1.77,0,0,1,.36-.68,1.6,1.6,0,0,1,.71-.48,3,3,0,0,1,1-.17h1.91a1.36,1.36,0,0,1,.29,0,.78.78,0,0,1,.3.13.58.58,0,0,1,.24.29,1.4,1.4,0,0,1,0,.38Z"/><path class="cls-1" d="M119.81,15.46a1.15,1.15,0,0,1,.83-.33,1.18,1.18,0,0,1,.85.33,1.7,1.7,0,0,1,.44.77L125,28.44h2.53l-3.65-13.28a3.68,3.68,0,0,0-1.25-1.79,3.21,3.21,0,0,0-2-.59,3.2,3.2,0,0,0-3.23,2.37l-3.63,13.29h2.54l3.07-12.21A1.76,1.76,0,0,1,119.81,15.46Z"/><path class="cls-1" d="M156.19,17a4.22,4.22,0,0,0-1.1-3.14A4.21,4.21,0,0,0,152,12.78h-4.31a4.21,4.21,0,0,0-3.13,1.09,4.22,4.22,0,0,0-1.1,3.14v7.44a4.22,4.22,0,0,0,1.1,3.14,4.21,4.21,0,0,0,3.13,1.09H152a4.21,4.21,0,0,0,3.13-1.09,4.22,4.22,0,0,0,1.1-3.14ZM153.76,24a2.22,2.22,0,0,1-2.39,2.38h-3.13A2.22,2.22,0,0,1,145.85,24V17.51a2.22,2.22,0,0,1,2.39-2.38h3.13a2.22,2.22,0,0,1,2.39,2.38Z"/><path class="cls-1" d="M163.7,28.44h4.35V26.09h-3.8a2.36,2.36,0,0,1-1.73-.52,2.34,2.34,0,0,1-.52-1.73V13h-2.4V24.34a4.5,4.5,0,0,0,.91,3.19A4.47,4.47,0,0,0,163.7,28.44Z"/><path class="cls-1" d="M114.07,13h-2.48l-2.77,12.21a1.66,1.66,0,0,1-.44.76,1.15,1.15,0,0,1-.84.34,1.23,1.23,0,0,1-.85-.33,1.52,1.52,0,0,1-.44-.8L103.68,13H101L98.45,25.2A1.59,1.59,0,0,1,98,26a1.25,1.25,0,0,1-.86.33,1.15,1.15,0,0,1-.84-.33,1.74,1.74,0,0,1-.44-.77h0L93.11,13H90.63L94,26.34a3.27,3.27,0,0,0,1.16,1.75,3.33,3.33,0,0,0,2,.59,3.4,3.4,0,0,0,2.06-.59,3,3,0,0,0,1.09-1.73l2-10.92,2.08,10.93a2.82,2.82,0,0,0,1.07,1.7,3.83,3.83,0,0,0,4.07.05,3.72,3.72,0,0,0,1.21-1.8Z"/><polygon class="cls-1" points="76.46 13.02 65.58 13.02 65.58 15.37 69.81 15.37 69.81 28.44 72.22 28.44 72.22 15.37 76.46 15.37 76.46 13.02"/><path class="cls-1" d="M86,13.37a3.26,3.26,0,0,0-2-.59,3.2,3.2,0,0,0-3.23,2.37L77.15,28.44h2.54l3.07-12.21a1.87,1.87,0,0,1,.42-.77,1.15,1.15,0,0,1,.83-.33,1.22,1.22,0,0,1,.86.33,1.79,1.79,0,0,1,.43.77l3.08,12.21h2.53L87.26,15.16A3.73,3.73,0,0,0,86,13.37Z"/><rect class="cls-2" x="64.79" y="30.16" width="104.5" height="0.86"/><rect class="cls-2" x="182.24" y="30.16" width="27.07" height="0.86"/><rect class="cls-2" x="220.16" y="30.16" width="13.52" height="0.86"/><rect class="cls-1" x="64.79" y="31.4" width="104.5" height="0.51"/><rect class="cls-1" x="182.24" y="31.4" width="27.07" height="0.51"/><rect class="cls-1" x="220.16" y="31.4" width="13.52" height="0.51"/><path class="cls-1" d="M69.69,43.39a3.09,3.09,0,0,1-2-.67,2.55,2.55,0,0,1-.87-1.55,2.26,2.26,0,0,1,0-.51A2.46,2.46,0,0,1,67,39.49a2.13,2.13,0,0,1,1.29-1.12,3.79,3.79,0,0,0-.47,1.77,3,3,0,0,0,.1.79,1.68,1.68,0,0,0,1.8,1.32,1.5,1.5,0,0,0,1.13-.35,1.44,1.44,0,0,0,.26-1V37.51c0-.29.26-.5.79-.62a3.49,3.49,0,0,1,.79-.1v4.26A2.09,2.09,0,0,1,72,42.77,3.54,3.54,0,0,1,69.69,43.39Zm.78-7.3a.28.28,0,0,1-.14.24.57.57,0,0,1-.36.11H69v-.91a.31.31,0,0,1,.14-.22.51.51,0,0,1,.35-.13h1Z"/><path class="cls-1" d="M79.2,41h0a2.91,2.91,0,0,1-1.6-.38l0,0a2.76,2.76,0,0,1-1.47.34,3.44,3.44,0,0,1-.72-.1,4.31,4.31,0,0,0-.69-.1,2.12,2.12,0,0,0-1,.23V34.8c0-.3.26-.52.79-.64a4.23,4.23,0,0,1,.79-.08v5.71a3.22,3.22,0,0,0,.72.09.78.78,0,0,0,.56-.17.69.69,0,0,0,.16-.51V34.8c0-.3.26-.51.79-.63a3.48,3.48,0,0,1,.79-.09v5.24h0a.51.51,0,0,0,.23.43.81.81,0,0,0,.49.15h.26Z"/><path class="cls-1" d="M78.85,39.89h2.56V41H78.85Z"/><path class="cls-1" d="M81.06,39.89h2.55V41H81.06Z"/><path class="cls-1" d="M83.26,41V39.89H85c-.45-.13-.68-.59-.68-1.37v-1a1.58,1.58,0,0,1,.58-1.3,2.69,2.69,0,0,1,1.68-.47,3.14,3.14,0,0,1,1.2.21,1,1,0,0,1,.71.93A2.06,2.06,0,0,1,88,38.07,1.09,1.09,0,0,0,86.9,36.9a1.28,1.28,0,0,0-.7.15.92.92,0,0,0-.32.83v1.18a.76.76,0,0,0,.2.47,1.25,1.25,0,0,0,1,.36h1.6a1.5,1.5,0,0,1-.11.55.79.79,0,0,1-.77.57Z"/><path class="cls-1" d="M92.62,34.8c0-.3.26-.51.79-.63a3.48,3.48,0,0,1,.79-.09v5.27a1.45,1.45,0,0,1-.69,1.32A2.76,2.76,0,0,1,92,41a3.44,3.44,0,0,1-.72-.1,4.16,4.16,0,0,0-.69-.1,2.12,2.12,0,0,0-1,.23V34.8c0-.3.26-.52.79-.64a4.23,4.23,0,0,1,.79-.08v5.71a3.22,3.22,0,0,0,.72.09.78.78,0,0,0,.56-.17.69.69,0,0,0,.16-.51Z"/><path class="cls-1" d="M96.75,40.38q0,.45-.81.63a3.72,3.72,0,0,1-.81.09V34.8c0-.3.27-.52.81-.64a4.45,4.45,0,0,1,.81-.08Z"/><path class="cls-1" d="M105.23,41.73a1.39,1.39,0,0,1-.48,1,2.37,2.37,0,0,1-1.14.57,2.64,2.64,0,0,1-.55.06,2.23,2.23,0,0,1-.77-.14,1.88,1.88,0,0,1-1.06-.88,2.42,2.42,0,0,0,.91.18,2.93,2.93,0,0,0,.58-.06,1,1,0,0,0,.94-1.07v-.57a1.94,1.94,0,0,1-1,.26,2.25,2.25,0,0,1-1.43-.46,1.58,1.58,0,0,1-.62-1.29V37.69a1.62,1.62,0,0,1,.55-1.27,2.17,2.17,0,0,1,1.47-.49,5.49,5.49,0,0,1,.8.1,4.63,4.63,0,0,0,.83.1,2,2,0,0,0,1-.22Zm-1.58-4.65a2.77,2.77,0,0,0-.6-.06.87.87,0,0,0-.66.21.86.86,0,0,0-.18.6v1.4c0,.53.2.79.6.79a.93.93,0,0,0,.58-.2.59.59,0,0,0,.26-.49Z"/><path class="cls-1" d="M114.32,41a2.77,2.77,0,0,1-1.48-.34l-.21-.15a3.82,3.82,0,0,1-.42.3,1.91,1.91,0,0,1-1,.3,2.3,2.3,0,0,1-1.44-.46,1.6,1.6,0,0,1-.61-1.29V37.69a1.59,1.59,0,0,1,.55-1.27,2.17,2.17,0,0,1,1.47-.49,5.49,5.49,0,0,1,.8.1,4.53,4.53,0,0,0,.83.1,2,2,0,0,0,1-.22v3.41c0,.38.28.57.73.57h.19V41Zm-3-6.18a.31.31,0,0,1-.14.24.61.61,0,0,1-.36.11h-1v-.9a.31.31,0,0,1,.14-.24.54.54,0,0,1,.35-.13h1Zm.84,2.25a2.91,2.91,0,0,0-.6-.06.87.87,0,0,0-.66.21.86.86,0,0,0-.18.6v1.4c0,.53.2.79.59.79a.91.91,0,0,0,.58-.2.58.58,0,0,0,.27-.49Zm1.1-2.25a.31.31,0,0,1-.14.24.61.61,0,0,1-.36.11h-1v-.9a.34.34,0,0,1,.14-.24.56.56,0,0,1,.35-.13h1Z"/><path class="cls-1" d="M114.29,39.89h2.56V41h-2.56Z"/><path class="cls-1" d="M118,39.89c.49,0,.73-.23.73-.69V36.6c0-.29.27-.5.8-.62a3.49,3.49,0,0,1,.78-.11v3.48a1.45,1.45,0,0,1-.69,1.32,2.81,2.81,0,0,1-1.49.34h-1.6V39.89Zm.23,2.66a.31.31,0,0,1-.14.24.61.61,0,0,1-.36.11h-1V42a.31.31,0,0,1,.14-.23.54.54,0,0,1,.35-.13h1Zm1.94,0a.31.31,0,0,1-.14.24.61.61,0,0,1-.36.11h-1V42a.34.34,0,0,1,.14-.23.56.56,0,0,1,.35-.13h1Z"/><path class="cls-1" d="M123.65,41a3.61,3.61,0,0,1-.69-.09,3.09,3.09,0,0,0-.66-.1,2.14,2.14,0,0,0-1.09.22V34.8c0-.3.26-.52.79-.64a4.23,4.23,0,0,1,.79-.08v5.73a4,4,0,0,0,.73.07h.53V41Z"/><path class="cls-1" d="M123.7,39.89h2.56V41H123.7Z"/><path class="cls-1" d="M125.91,41V39.89h1.72c-.45-.13-.68-.59-.68-1.37v-1a1.58,1.58,0,0,1,.58-1.3,2.69,2.69,0,0,1,1.68-.47,3.14,3.14,0,0,1,1.2.21,1,1,0,0,1,.71.93,2.14,2.14,0,0,1-.44,1.15,1.09,1.09,0,0,0-1.13-1.17,1.25,1.25,0,0,0-.7.15.92.92,0,0,0-.32.83v1.18a.76.76,0,0,0,.2.47,1.24,1.24,0,0,0,1,.36h1.6a1.32,1.32,0,0,1-.11.55.77.77,0,0,1-.77.57Z"/><path class="cls-1" d="M133.12,41a.74.74,0,0,1-.74-.4,2.16,2.16,0,0,1-.13-.89,2.86,2.86,0,0,0,1.21.17h1.67v-2a.91.91,0,0,0-.32-.81,1.36,1.36,0,0,0-.7-.14,1.12,1.12,0,0,0-.76.27,1.07,1.07,0,0,0-.37.89,2.06,2.06,0,0,1-.44-1.14,1,1,0,0,1,.72-.94,3.09,3.09,0,0,1,1.19-.21,2.62,2.62,0,0,1,1.68.48,1.56,1.56,0,0,1,.59,1.29v2.3h.92V41Z"/><path class="cls-1" d="M141.23,41a2.82,2.82,0,0,1-1.61-.39,2.71,2.71,0,0,1-1.51.39h-.82V39.89H138q.72,0,.72-.69V34.8c0-.29.26-.5.79-.62a3.66,3.66,0,0,1,.79-.11v5.24a.51.51,0,0,0,.23.43.84.84,0,0,0,.49.15h.72V41Z"/><path class="cls-1" d="M141.35,39.89h2.56V41h-2.56Z"/><path class="cls-1" d="M145.15,39.89V34.8c0-.3.27-.52.81-.64a4.45,4.45,0,0,1,.81-.08v6.2c0,.31-.2.52-.61.64a2.08,2.08,0,0,1-.6.09h-2V39.89Z"/><path class="cls-1" d="M156.74,39.81a4.13,4.13,0,0,0,.72.07h.39V41h-.26a3.81,3.81,0,0,1-.69-.09l-.16,0v.17a2.09,2.09,0,0,1-.73,1.72,3.55,3.55,0,0,1-2.27.62,3,3,0,0,1-2-.67,2.61,2.61,0,0,1-.88-1.55,3,3,0,0,1,0-.51,2.59,2.59,0,0,1,.28-1.17,2.13,2.13,0,0,1,1.29-1.12,3.89,3.89,0,0,0-.46,1.77,3,3,0,0,0,.1.79,1.66,1.66,0,0,0,1.79,1.32,1.47,1.47,0,0,0,1.13-.35,1.39,1.39,0,0,0,.26-1V34.79c0-.29.27-.5.8-.62a4.17,4.17,0,0,1,.78-.1Z"/><path class="cls-1" d="M157.5,39.89h2.55V41H157.5Z"/><path class="cls-1" d="M159.7,39.89h2.56V41H159.7Z"/><path class="cls-1" d="M161.91,39.89h2.56V41h-2.56Z"/><path class="cls-1" d="M164.12,41V39.87h.94V36.6c0-.3.26-.52.79-.64a3.61,3.61,0,0,1,.79-.09v1a2.61,2.61,0,0,1,1.1-.77,6.24,6.24,0,0,1,2.17-.25,4.27,4.27,0,0,1,2.26.54,2.06,2.06,0,0,1,1.05,1.88v1a1.6,1.6,0,0,1-.6,1.32,2.28,2.28,0,0,1-1.47.45Zm2.52-2.29v1.09a4,4,0,0,0,.72.07h3.56c.47,0,.71-.28.71-.83V38.4a1.21,1.21,0,0,0-.54-1.08,2.17,2.17,0,0,0-1.18-.29C167.77,37.05,166.68,37.62,166.64,38.72Z"/><path class="cls-1" d="M175.77,40.38q0,.45-.81.63a3.72,3.72,0,0,1-.81.09V34.8c0-.3.27-.52.81-.64a4.45,4.45,0,0,1,.81-.08Z"/><path class="cls-1" d="M181.3,39.8a3.86,3.86,0,0,0,.71.08h.39V41h-.26a3.62,3.62,0,0,1-.68-.09l-.16,0v.85a1.4,1.4,0,0,1-.49,1,2.37,2.37,0,0,1-1.14.57,2.64,2.64,0,0,1-.55.06,2.28,2.28,0,0,1-.77-.14,1.86,1.86,0,0,1-1-.88,2.33,2.33,0,0,0,.9.18,2.86,2.86,0,0,0,.58-.06,1,1,0,0,0,.94-1.07v-.57a1.9,1.9,0,0,1-1,.26,2.3,2.3,0,0,1-1.44-.46,1.57,1.57,0,0,1-.61-1.29V37.69a1.61,1.61,0,0,1,.54-1.27,2.22,2.22,0,0,1,1.48-.49,5.56,5.56,0,0,1,.79.1,4.62,4.62,0,0,0,.84.1,2.07,2.07,0,0,0,1-.22Zm-1.59-2.72a2.77,2.77,0,0,0-.6-.06.9.9,0,0,0-.66.21.86.86,0,0,0-.18.6v1.4c0,.53.2.79.6.79a.93.93,0,0,0,.58-.2.59.59,0,0,0,.26-.49Z"/><path class="cls-1" d="M182.05,39.89h2.56V41h-2.56Z"/><path class="cls-1" d="M184.26,39.89h2.55V41h-2.55Z"/><path class="cls-1" d="M186.47,39.89H189V41h-2.55Z"/><path class="cls-1" d="M190.14,39.89c.49,0,.74-.23.74-.69V36.6c0-.29.26-.5.79-.62a3.58,3.58,0,0,1,.79-.11v3.48a1.46,1.46,0,0,1-.7,1.32,2.8,2.8,0,0,1-1.48.34h-1.61V39.89Zm.34-5a.31.31,0,0,1-.14.24.51.51,0,0,1-.35.11h-1v-.9a.31.31,0,0,1,.14-.23.51.51,0,0,1,.35-.13h1Zm1.94,0a.31.31,0,0,1-.14.24.55.55,0,0,1-.36.11h-1v-.9a.31.31,0,0,1,.14-.23.51.51,0,0,1,.35-.13h1Z"/><path class="cls-1" d="M201.54,41a2.8,2.8,0,0,1-1.48-.34l-.21-.15a3.82,3.82,0,0,1-.42.3,1.91,1.91,0,0,1-1,.3,2.25,2.25,0,0,1-1.43-.46,1.58,1.58,0,0,1-.62-1.29V37.69a1.62,1.62,0,0,1,.55-1.27,2.17,2.17,0,0,1,1.47-.49,5.49,5.49,0,0,1,.8.1,4.63,4.63,0,0,0,.83.1,2,2,0,0,0,.95-.22v3.41c0,.38.29.57.74.57h.18V41Zm-3-6.18a.31.31,0,0,1-.14.24.58.58,0,0,1-.35.11h-1v-.9a.34.34,0,0,1,.14-.24.56.56,0,0,1,.35-.13h1Zm.84,2.25a2.77,2.77,0,0,0-.6-.06.87.87,0,0,0-.66.21.86.86,0,0,0-.18.6v1.4c0,.53.2.79.6.79a.93.93,0,0,0,.58-.2.59.59,0,0,0,.26-.49Zm1.1-2.25a.31.31,0,0,1-.14.24.61.61,0,0,1-.36.11h-1v-.9a.34.34,0,0,1,.14-.24.56.56,0,0,1,.35-.13h1Z"/><path class="cls-1" d="M201.51,39.89h2.56V41h-2.56Z"/><path class="cls-1" d="M211.38,39.89v0a1,1,0,0,0,.71-.21.88.88,0,0,0,.16-.6v-.4a.83.83,0,0,0-.16-.59,1,1,0,0,0-.71-.21H205l-.25.11a1.91,1.91,0,0,1-.34-.57.91.91,0,0,1-.08-.36.39.39,0,0,1,.25-.39l5.55-2.39a2.44,2.44,0,0,1,1-.22h.2a1.23,1.23,0,0,1,.91.45,1.17,1.17,0,0,1,.27.71v.07a.71.71,0,0,1-.09.32,1,1,0,0,0-.87-.36h0a2.06,2.06,0,0,0-.85.18l-3.08,1.33h3.79a3.11,3.11,0,0,1,1.86.47,1.52,1.52,0,0,1,.6,1.3v.68q0,1.77-2.46,1.77h-7.66V39.89Z"/><path class="cls-1" d="M218.72,41h-.26a3.81,3.81,0,0,1-.69-.09l-.17,0v.85a1.39,1.39,0,0,1-.48,1,2.37,2.37,0,0,1-1.14.57,2.64,2.64,0,0,1-.55.06,2.23,2.23,0,0,1-.77-.14,1.91,1.91,0,0,1-1.06-.88,2.42,2.42,0,0,0,.91.18,2.93,2.93,0,0,0,.58-.06,1,1,0,0,0,.94-1.07V35.87a3.61,3.61,0,0,1,.79.09c.52.12.78.34.78.64v3.21a4,4,0,0,0,.73.07h.39Z"/><path class="cls-1" d="M218.37,39.89h2.55V41h-2.55Z"/><path class="cls-1" d="M220.57,39.89h2.56V41h-2.56Z"/><path class="cls-1" d="M222.78,39.89h2.55V41h-2.55Z"/><path class="cls-1" d="M225,39.89h1V36.6c0-.3.26-.52.79-.64a3.55,3.55,0,0,1,.79-.09v3.94a3.88,3.88,0,0,0,.72.07c.48,0,.72-.23.72-.68V36.6c0-.29.26-.5.79-.62a3.66,3.66,0,0,1,.79-.11v3.45a.51.51,0,0,0,.23.43.81.81,0,0,0,.49.15c.48,0,.72-.28.72-.83V36.6c0-.3.26-.51.79-.63a3.64,3.64,0,0,1,.79-.1v3.37a1.6,1.6,0,0,1-.6,1.32,2.23,2.23,0,0,1-1.46.45,2.87,2.87,0,0,1-1.62-.39,2.65,2.65,0,0,1-1.5.39,3.61,3.61,0,0,1-.69-.09,3,3,0,0,0-.66-.1,2.54,2.54,0,0,0-.72.08l-.38.1H225Zm3.58-5.06a.31.31,0,0,1-.14.24.61.61,0,0,1-.36.11h-1v-.9a.32.32,0,0,1,.13-.24.58.58,0,0,1,.36-.12h1Zm1.93,0a.28.28,0,0,1-.14.24.56.56,0,0,1-.35.11h-1v-.9a.34.34,0,0,1,.14-.24.55.55,0,0,1,.35-.12h1Zm1.94,0a.31.31,0,0,1-.14.24.61.61,0,0,1-.36.11h-1v-.9a.34.34,0,0,1,.14-.24.55.55,0,0,1,.35-.12h1Z"/><path class="cls-2" d="M71.63,48h-2v6.47H68.18V48H66.12V46.83h5.67Z"/><path class="cls-2" d="M75.87,52.69H73.34l-.48,1.77H71.35l2.37-7.63h1.81l2.36,7.63H76.34Zm-.3-1.1-1-3.65-1,3.65Z"/><path class="cls-2" d="M85.62,54.46h-1.9l-1.16-6.09-1.19,6.09H79.53l-1.38-7.63h1.44l1,6.47,1.24-6.47h1.55l1.23,6.47,1.06-6.47H87Z"/><path class="cls-2" d="M91.78,52.69H89.25l-.47,1.77H87.26l2.38-7.63h1.8l2.36,7.63H92.26Zm-.3-1.1-1-3.65-1,3.65Z"/><path class="cls-2" d="M99.49,47.6l-.72.83a2.57,2.57,0,0,0-1.71-.65c-.69,0-1.19.31-1.19.9s.3.8,1.57,1.2,2.27,1,2.27,2.41-1.07,2.34-2.9,2.34a3.8,3.8,0,0,1-2.75-1.05l.75-.84a3,3,0,0,0,2,.76c.82,0,1.4-.4,1.4-1.14s-.32-.92-1.51-1.29c-1.6-.5-2.3-1.14-2.3-2.3s1.09-2.11,2.6-2.11A3.45,3.45,0,0,1,99.49,47.6Z"/><path class="cls-2" d="M107.33,50.64c0,2.52-1.29,4-3.33,4s-3.35-1.43-3.35-4,1.3-4,3.35-4S107.33,48.09,107.33,50.64Zm-5.15,0c0,2.06.7,2.86,1.82,2.86s1.8-.8,1.8-2.87-.65-2.86-1.8-2.86S102.18,48.6,102.18,50.65Z"/><path class="cls-2" d="M110.27,53.27h3.06l-.16,1.19h-4.35V46.83h1.45Z"/><path class="cls-2" d="M120.85,52.69h-2.53l-.47,1.77h-1.52l2.38-7.63h1.8l2.36,7.63h-1.54Zm-.3-1.1-1-3.65-1,3.65Z"/><path class="cls-2" d="M129.63,50.61c0,3.09-1.89,3.85-3.72,3.85h-2.07V46.83h1.87C127.72,46.83,129.63,47.45,129.63,50.61Zm-4.33-2.69v5.45H126c1.14,0,2.08-.51,2.08-2.76s-1-2.69-2.12-2.69Z"/><path class="cls-2" d="M134.17,54.46h-1.74l-2.33-7.63h1.57l1.66,6.34,1.61-6.34h1.49Z"/><path class="cls-2" d="M141.67,47.91h-2.81V50h2.45v1.09h-2.45v2.24h3v1.09H137.4V46.83h4.43Z"/><path class="cls-2" d="M145.75,51.4h-.93v3.06h-1.45V46.83h2.27c2,0,3,.73,3,2.24a2.07,2.07,0,0,1-1.55,2.07l2,3.32h-1.68Zm-.93-1h.91c.91,0,1.41-.36,1.41-1.28s-.47-1.18-1.53-1.18h-.79Z"/><path class="cls-2" d="M154.76,48h-2v6.47H151.3V48h-2.05V46.83h5.66Z"/><path class="cls-2" d="M157.44,54.46H156V46.83h1.46Z"/><path class="cls-2" d="M164.05,47.6l-.71.83a2.61,2.61,0,0,0-1.72-.65c-.68,0-1.18.31-1.18.9s.3.8,1.57,1.2,2.26,1,2.26,2.41-1.07,2.34-2.89,2.34a3.8,3.8,0,0,1-2.75-1.05l.75-.84a2.93,2.93,0,0,0,2,.76c.81,0,1.4-.4,1.4-1.14s-.32-.92-1.51-1.29c-1.6-.5-2.3-1.14-2.3-2.3s1.09-2.11,2.59-2.11A3.42,3.42,0,0,1,164.05,47.6Z"/><path class="cls-2" d="M167.1,54.46h-1.46V46.83h1.46Z"/><path class="cls-2" d="M174.63,54.46h-1.89l-2.62-6.17a23.57,23.57,0,0,1,.2,3.06v3.11H169V46.83h1.84L173.5,53a20.27,20.27,0,0,1-.19-2.6V46.83h1.32Z"/><path class="cls-2" d="M182.05,47.56l-.79.81a2.4,2.4,0,0,0-1.6-.6c-1.08,0-2,.81-2,2.87s.62,2.87,1.81,2.87a2.45,2.45,0,0,0,1.22-.3v-2h-1.15l-.16-1.09h2.74v3.74a5.11,5.11,0,0,1-2.63.75c-2.17,0-3.37-1.37-3.37-4s1.59-4,3.51-4A3.54,3.54,0,0,1,182.05,47.56Z"/><path class="cls-2" d="M191.61,47.47l-.74.86a2.23,2.23,0,0,0-1.42-.54c-1.06,0-1.88.77-1.88,2.84s.8,2.83,1.88,2.83a2.47,2.47,0,0,0,1.56-.62l.68.86a3.2,3.2,0,0,1-2.29.93c-2,0-3.36-1.41-3.36-4s1.46-4,3.34-4A3.21,3.21,0,0,1,191.61,47.47Z"/><path class="cls-2" d="M198.89,50.64c0,2.52-1.29,4-3.34,4s-3.34-1.43-3.34-4,1.3-4,3.34-4S198.89,48.09,198.89,50.64Zm-5.15,0c0,2.06.7,2.86,1.81,2.86s1.8-.8,1.8-2.87-.65-2.86-1.8-2.86S193.74,48.6,193.74,50.65Z"/><path class="cls-2" d="M207.52,54.46H206.1l-.2-3.19c-.07-1.13-.12-2.31-.1-3.12l-1.39,5.48H203l-1.48-5.49a30.74,30.74,0,0,1-.05,3.17l-.19,3.15H199.9l.61-7.63h1.88l1.35,5.35L205,46.83h1.91Z"/><path class="cls-2" d="M214.39,49.26c0,1.76-1.27,2.54-3,2.54h-.89v2.66H209V46.83h2.25C213.22,46.83,214.39,47.61,214.39,49.26Zm-1.53,0c0-1-.58-1.36-1.58-1.36h-.78v2.81h.78C212.25,50.71,212.86,50.37,212.86,49.26Z"/><path class="cls-2" d="M218.59,52.69h-2.53l-.48,1.77h-1.51l2.37-7.63h1.8l2.37,7.63h-1.55Zm-.3-1.1-1-3.65-1,3.65Z"/><path class="cls-2" d="M227.21,54.46h-1.89l-2.62-6.17a23.57,23.57,0,0,1,.2,3.06v3.11h-1.33V46.83h1.85L226.08,53a18.18,18.18,0,0,1-.2-2.6V46.83h1.33Z"/><path class="cls-2" d="M232.13,51.57v2.89h-1.48V51.58l-2.46-4.75h1.62l1.61,3.54L233,46.83h1.55Z"/></svg>